<svg width="444" height="444" viewBox="0 0 444 444" fill="none" xmlns="http://www.w3.org/2000/svg">
<path d="M222.031 444C219.556 443.982 217 443.955 214.471 443.875L221.399 237.685C221.452 237.685 221.506 237.685 221.568 237.685L222.013 224.057L222.503 237.685C222.503 237.685 222.574 237.685 222.61 237.685L229.84 443.857C227.249 443.947 224.622 443.991 222.04 443.991L222.031 444ZM199.085 442.815C193.947 442.29 188.773 441.568 183.698 440.678L219.2 237.426C219.28 237.444 219.369 237.453 219.449 237.471L221.47 225.776L199.076 442.815H199.085ZM245.218 442.789L222.423 225.082L224.613 237.462C224.694 237.444 224.765 237.435 224.845 237.418L260.525 440.642C255.476 441.524 250.329 442.245 245.218 442.789ZM168.516 437.48C163.503 436.242 158.48 434.799 153.574 433.214L217.134 236.892C217.134 236.892 217.178 236.91 217.196 236.91L221.604 223.238L168.516 437.48ZM275.698 437.427L222.53 223.657L226.848 236.901H226.875L290.666 433.134C285.742 434.737 280.702 436.18 275.689 437.427H275.698ZM138.926 427.897C134.145 425.964 129.363 423.835 124.733 421.573L221.479 223.185L216.119 236.527C216.119 236.527 216.145 236.536 216.163 236.545L138.935 427.897H138.926ZM305.305 427.799L227.855 236.536L227.962 236.491L222.717 223.594L319.454 421.475C314.833 423.737 310.069 425.866 305.296 427.799H305.305ZM111.011 414.278C106.568 411.713 102.151 408.952 97.895 406.075L220.687 224.031L214.053 235.538C214.106 235.565 214.16 235.601 214.213 235.627L111.011 414.287V414.278ZM333.149 414.18L229.796 235.609C229.858 235.574 229.92 235.538 229.974 235.503L223.456 224.271L346.265 405.95C342.009 408.827 337.592 411.597 333.149 414.171V414.18ZM85.3397 396.946C81.315 393.802 77.3436 390.471 73.5414 387.042L221.087 222.953L212.236 234.3C212.236 234.3 212.316 234.363 212.361 234.398L85.3397 396.937V396.946ZM358.749 396.875L231.648 234.389C231.648 234.389 231.728 234.327 231.764 234.3L222.904 223.006L370.574 386.935C366.763 390.373 362.783 393.722 358.74 396.875H358.749ZM62.4198 376.309C58.8492 372.613 55.3586 368.747 52.0551 364.81L209.921 232.047L209.984 232.118L221.319 222.561L62.4287 376.309H62.4198ZM381.678 376.211L223.144 222.998L234.025 232.118C234.025 232.118 234.07 232.065 234.097 232.038L392.043 364.703C388.739 368.64 385.249 372.515 381.678 376.211ZM42.5363 352.662C39.5088 348.511 36.5971 344.2 33.8634 339.845L208.612 230.212C208.648 230.274 208.692 230.346 208.737 230.408L219.645 223.55L42.5363 352.662ZM401.562 352.528L224.142 223.398L235.299 230.363C235.325 230.319 235.361 230.265 235.388 230.221L410.243 339.685C407.519 344.04 404.598 348.369 401.571 352.528H401.562ZM26.0899 326.431C23.6679 321.889 21.3706 317.204 19.278 312.51L207.615 228.297L207.668 228.422L220.206 222.802L26.0899 326.431ZM417.999 326.253L223.491 222.659L236.358 228.377C236.358 228.377 236.385 228.315 236.394 228.288L424.802 312.332C422.71 317.026 420.421 321.72 417.999 326.262V326.253ZM13.4367 298.099C11.6737 293.272 10.062 288.311 8.63727 283.358L220.989 222.24L221.328 222.169L220.998 222.24L221.515 222.089L221.15 222.116L221.452 222.027L221.167 222.009L220.428 222.169L218.852 222.276L220.874 221.991L220.606 221.973L221.123 221.955L221.248 221.973H221.346H221.31L221.524 222H221.559L221.435 221.964L221.764 221.929L221.684 221.884L221.381 221.947L221.256 221.92L221.648 221.866H221.666H221.702L221.728 221.875H221.72L221.8 221.92H221.826H221.844H221.853H221.871V221.929L221.862 221.955V221.964H221.853V221.973L221.8 222.027H221.809L221.835 222.009V222.027L221.871 221.982V222.009L221.889 221.991V221.982L221.898 221.973H221.907V221.964H221.898V221.947H221.907H221.924V221.929L221.951 221.955V221.947L221.96 221.973L221.969 221.991V221.973H221.978V221.964L221.96 221.947V221.955H221.951V221.938V221.929L221.933 221.911V221.92H221.924L221.933 221.938V221.929H221.942H221.951L221.96 221.893V221.875H221.951V221.884L221.969 221.866H221.96V221.84L221.969 221.831V221.76H221.996L222.022 221.688L221.978 221.742L222.058 221.572V221.617L222.093 221.564L222.04 221.76V221.768V221.786L222.013 221.84L221.996 221.849H222.013V221.84L221.996 221.857H222.022L222.049 221.84V221.822V221.813L222.076 221.768H222.067L222.129 221.715L222.102 221.742L222.183 221.679L222.343 221.564L222.307 221.617L222.476 221.51L222.209 221.742H222.236L222.183 221.786L222.512 221.635L222.378 221.733H222.503L223.002 221.421L224.061 220.949L222.699 221.679L222.77 221.662L424.535 131.178C426.645 135.89 428.613 140.726 430.385 145.571L222.859 221.635L222.931 221.617L222.672 221.706H222.699L222.583 221.742H222.601L222.432 221.795H222.45L222.396 221.813H222.414L222.263 221.857H222.272L222.138 221.902L222.076 221.929L222.049 221.947L222.067 221.964H222.085H222.076V221.973H222.093H222.129L222.227 221.911H222.209L222.272 221.884L222.325 221.857H222.334L222.53 221.777L222.378 221.857L222.717 221.76H222.548L224.756 221.457L223.652 221.688L223.153 221.724H223.491L222.672 221.893L222.788 221.911H222.646L222.432 221.947L222.263 221.911L222.147 221.973L222.218 221.991H222.2L222.378 222.045H222.316L222.352 222.062H222.414L222.708 222.134L222.485 222.116L222.637 222.187L223.135 222.258L224.515 222.65L223.456 222.428L435.372 283.1C433.956 288.043 432.344 293.013 430.59 297.85L236.706 227.344C236.706 227.344 236.706 227.344 236.706 227.335L223.144 222.419H223.171L222.441 222.169L222.361 222.143L222.2 222.089L222.138 222.062L222.111 222.053H222.129L222.085 222.045H222.067L222.111 222.071H222.093L222.111 222.098L222.067 222.045H222.058H222.049H222.031V222.062H222.022V222.071V222.089V222.098H222.013V222.116H222.004V222.125L221.987 222.116H221.978V222.125H221.996V222.143V222.178V222.196L221.978 222.151L222.004 222.205L222.031 222.285L222.004 222.232L221.987 222.303L221.96 222.205L221.915 222.285L221.942 222.499V222.552L221.933 222.65V222.57L221.88 222.748L221.898 222.312V222.294V222.232L221.915 222.196V222.232L221.898 222.267V222.285L221.915 222.249V222.267L221.96 222.187V222.16L221.942 222.196V222.169V222.178L221.96 222.151V222.143V222.125H221.951H221.942H221.933L221.924 222.143V222.125V222.107L221.907 222.151L221.889 222.169L221.853 222.205L221.835 222.338L221.613 222.623L221.791 222.267L221.657 222.401L221.265 223.078L220.633 223.888L221.595 222.463L221.533 222.525L221.693 222.321L221.577 222.41L221.746 222.267L221.728 222.303L221.764 222.276L221.693 222.356L221.817 222.232L221.773 222.267L221.826 222.214L221.782 222.24L221.88 222.16L221.915 222.116H221.898H221.889H221.853H221.835H221.826H221.755L221.55 222.187H221.559L221.31 222.267H221.328L221.123 222.338L221.159 222.321L219.208 223.033L13.4367 298.099ZM221.898 222.08V222.107V222.071V222.08ZM221.987 222.098V222.071H221.978V222.08V222.089L221.987 222.098ZM221.987 222.08V222.062H221.978H221.969H221.987V222.071V222.08ZM222.227 222.045L222.298 222.062L222.263 222.036H222.218L222.227 222.045ZM222.307 222.036L222.343 222.053H222.37L222.334 222.027H222.316L222.307 222.036ZM221.88 222.018V222.053L221.889 222.036V222.009H221.88V222.018ZM221.951 222L221.96 221.991V222H221.951ZM222.004 221.973H222.013H221.987L222.004 221.964H221.987H221.978H221.96H221.951V221.973H221.969H221.978H222.004ZM222.129 221.947V221.964L222.138 221.938H222.12V221.955L222.129 221.947ZM222.218 221.795L222.378 221.76L222.254 221.777H222.263L222.227 221.804L222.218 221.795ZM222.387 221.76L222.361 221.777L222.503 221.751H222.387V221.76ZM222.414 221.742L222.396 221.76L222.53 221.724L222.414 221.751V221.742ZM4.8618 268.253C3.78437 263.194 2.87612 258.028 2.16377 252.915L218.282 222.632L206.6 225.135C206.609 225.198 206.627 225.251 206.635 225.313L4.8618 268.253ZM439.209 267.923L237.365 225.331C237.382 225.242 237.4 225.153 237.418 225.064L225.557 222.57L441.872 252.675C441.168 257.76 440.269 262.891 439.209 267.923ZM0.543168 237.551C0.186992 232.448 0 227.273 0 222.16L219.369 221.973L206.27 222.9C206.27 222.989 206.279 223.069 206.288 223.158L0.543168 237.551ZM443.475 237.275L237.703 223.14C237.703 223.06 237.721 222.971 237.721 222.891L223.999 221.964H237.756C237.756 221.866 237.756 221.786 237.756 221.697H444V221.938C444 227.032 443.822 232.198 443.475 237.275ZM221.826 224.779L221.871 223.47L221.96 222.944L221.978 223.327L221.826 224.779ZM222.592 224.61L222.218 223.104L222.156 222.481L222.307 222.935L222.601 224.601L222.592 224.61ZM221.47 224.44L221.8 222.641L221.72 223.452L221.479 224.432L221.47 224.44ZM222.129 224.271L222.031 223.327L222.049 222.917L222.093 223.194L222.129 224.28V224.271ZM220.874 224.093L221.479 222.855L221.8 222.374L221.648 222.757L220.874 224.093ZM223.091 224.031L222.316 222.597L222.557 222.953L223.082 224.031H223.091ZM223.233 223.621L222.628 222.846L222.361 222.392L222.512 222.552L223.233 223.621ZM219.369 223.47L220.963 222.472L221.381 222.285L220.811 222.695L219.36 223.47H219.369ZM224.32 223.3L223.118 222.659L222.521 222.223L222.806 222.347L224.32 223.291V223.3ZM222.004 223.087L221.978 222.864L222.004 222.713L222.022 222.837L221.996 223.087H222.004ZM220.606 223.06L221.15 222.606L221.506 222.383L221.408 222.481L220.615 223.06H220.606ZM223.349 223.015L222.485 222.365L222.833 222.588L223.34 223.015H223.349ZM222.049 222.606V222.454V222.436V222.33L222.058 222.374L222.076 222.267L222.058 222.24V222.223L222.076 222.258L222.058 222.196L222.076 222.249L222.102 222.312L222.085 222.276L222.076 222.267L222.058 222.454V222.472V222.597L222.049 222.606ZM219.867 222.481L220.411 222.321L220.972 222.24L219.858 222.481H219.867ZM222.316 222.445L222.174 222.187L222.2 222.214L222.316 222.445ZM222.583 222.374L222.209 222.107L222.183 222.08H222.218H222.227H222.191L222.414 222.178L222.316 222.16L222.565 222.374H222.583ZM221.435 222.365L221.728 222.143L221.63 222.258L221.435 222.365ZM226.234 222.356L223.714 222.187L222.824 222H222.672H222.788L222.681 221.982H223.34H223.224H223.394L226.216 222.374L226.234 222.356ZM222.592 222.214L222.396 222.125H222.476L222.592 222.214ZM221.915 222.187L221.933 222.116V222.169L221.915 222.196V222.187ZM222.165 222.151L222.12 222.098L222.156 222.116V222.098V222.125V222.151H222.165ZM222.049 222.107H222.04H222.031H222.049ZM222.129 222.08L222.111 222.062V222.045L222.129 222.071V222.08ZM222.102 222.053V222.036V222.018V222.027L222.111 222.045H222.102V222.053ZM223.616 221.947L223.296 221.929L224.872 221.706H227.071L223.616 221.947ZM206.244 221.938V221.697C206.244 221.777 206.244 221.857 206.244 221.938ZM219.992 221.929L216.671 221.697H219.306L220.624 221.884L219.992 221.929ZM221.88 221.92L221.889 221.902V221.893H221.907L221.889 221.911H221.871L221.88 221.92ZM221.871 221.911H221.853H221.862H221.871ZM221.826 221.893L221.782 221.875L221.746 221.866H221.764L221.666 221.813H221.604L221.622 221.822H221.604H221.55L221.515 221.804H221.354L221.479 221.831L220.927 221.866L220.054 221.706H220.152L217.677 221.181L220.642 221.59L221.043 221.706H221.292L221.23 221.679L221.185 221.662H221.274L221.052 221.617L207.223 216.585L13.2676 146.239C15.0217 141.385 16.9807 136.54 19.0732 131.819L221.176 221.626L219.618 220.798L220.856 221.35L221.541 221.706L221.372 221.581L221.791 221.768V221.751H221.782L221.746 221.706H221.755L221.737 221.679L221.871 221.777V221.76H221.88L221.826 221.546L221.844 221.564V221.519L221.898 221.653V221.697L221.915 221.733L221.898 221.706L221.924 221.786V221.804V221.813L221.889 221.786H221.88L221.853 221.768V221.786H221.835L221.853 221.813L221.817 221.786H221.809L221.773 221.76L221.791 221.786H221.72L221.728 221.795H221.693L221.782 221.84L221.809 221.875L221.826 221.893ZM221.292 221.679H221.319H221.283H221.292ZM221.924 221.875V221.849V221.866V221.875ZM221.924 221.866V221.849V221.831H221.933V221.84L221.915 221.866H221.924ZM221.835 221.866V221.857H221.853L221.835 221.866ZM222.004 221.831H221.996V221.822V221.804V221.786V221.777H222.013L222.022 221.742V221.768V221.777L222.004 221.804H222.022H222.013L222.004 221.813V221.831ZM221.96 221.813L221.933 221.795V221.768H221.942V221.751V221.706L221.96 221.724V221.706L221.987 221.76L221.996 221.768V221.786L221.978 221.813H221.96ZM222.04 221.742V221.724L222.049 221.715L222.067 221.697V221.662V221.644V221.679V221.688H222.058L222.04 221.715H222.022L222.04 221.742ZM221.978 221.733L221.96 221.706H221.987V221.733H221.978ZM221.8 221.697L221.675 221.581L221.604 221.457L221.8 221.697ZM222.2 221.688L222.245 221.599L222.432 221.394L222.316 221.599L223.269 220.468L222.815 221.047L232.547 210.225C232.547 210.225 232.521 210.199 232.503 210.181L370.298 56.6913C374.092 60.1025 377.823 63.692 381.384 67.3615L233.349 211.009L233.304 210.965L222.316 221.599L222.334 221.572L222.298 221.608L222.316 221.59L222.209 221.67L222.2 221.688ZM222.085 221.67L222.102 221.572L222.2 221.287L222.183 221.412L222.236 221.296L222.085 221.67ZM222.432 221.617L222.77 221.332L224.142 220.468L222.957 221.332L222.423 221.617H222.432ZM218.603 221.599L0.507551 206.841C0.854822 201.737 1.38018 196.571 2.08363 191.494L206.431 219.631C206.413 219.72 206.404 219.809 206.386 219.907L218.594 221.608L218.603 221.599ZM222.013 221.581L221.987 221.475L222.013 221.323L222.031 221.528L222.013 221.581ZM221.399 221.537L221.078 221.368L220.063 220.628L221.061 221.252L221.399 221.537ZM221.568 221.483L221.533 221.448L221.15 220.958L221.568 221.475V221.483ZM223.687 221.466L237.115 217.6C237.115 217.6 237.097 217.538 237.089 217.511L435.309 160.33C436.743 165.291 438.016 170.359 439.085 175.4L223.687 221.466ZM226.572 221.466L237.614 219.916C237.596 219.818 237.587 219.72 237.569 219.622L441.801 190.657C442.522 195.77 443.074 200.971 443.439 206.119L226.572 221.466ZM219.992 221.403L4.74604 176.175C5.80567 171.116 7.07009 166.021 8.48589 161.051L206.885 217.6C206.885 217.6 206.876 217.636 206.867 217.654L219.992 221.412V221.403ZM222.2 221.385L222.263 221.216L222.245 221.27L222.45 220.477L222.289 221.118L290.185 10.5812C295.101 12.1666 300.025 13.9479 304.824 15.8807L222.263 221.225L222.654 220.424L222.254 221.305V221.252L222.209 221.385H222.2ZM221.648 221.385L221.319 220.967L220.624 219.764L221.461 220.994L221.648 221.385ZM221.764 221.359L221.577 221.038L221.363 220.521L221.755 221.359H221.764ZM221.381 221.296L210.696 210.965L210.651 211.009L62.126 67.8781C65.6877 64.1818 69.4187 60.5657 73.2298 57.1277L211.462 210.234C211.462 210.234 211.444 210.252 211.435 210.261L221.381 221.305V221.296ZM222.405 221.27L222.539 220.985L223.394 219.711L222.77 220.789L222.396 221.261L222.405 221.27ZM222.093 221.27L222.111 220.789L222.414 219.034L222.254 220.628L222.093 221.27ZM221.951 221.154V220.985L221.969 221.029L221.951 221.163V221.154ZM221.728 221.136V221.118L221.595 220.611L221.728 221.127V221.136ZM221.898 221.092L221.711 220.352L221.506 218.446L221.871 220.521L221.889 221.092H221.898ZM221.648 220.94L138.454 16.1746C143.245 14.224 148.169 12.4249 153.076 10.8217L221.648 220.94ZM221.978 220.851L221.96 220.7L221.978 220.174L221.996 220.664L221.978 220.851ZM223.349 220.851L391.785 78.869C395.088 82.7969 398.294 86.8762 401.312 91.0089L234.764 212.71L234.675 212.586L223.349 220.842V220.851ZM219.778 220.673L208.14 214.474C208.114 214.527 208.078 214.59 208.051 214.643L25.894 117.818C28.3071 113.276 30.9161 108.751 33.6408 104.387L219.778 220.673ZM224.275 220.637L409.994 103.799C412.728 108.154 415.346 112.652 417.777 117.186L235.922 214.599C235.895 214.554 235.869 214.501 235.842 214.456L224.266 220.637H224.275ZM220.197 220.53L209.307 212.603C209.271 212.648 209.236 212.701 209.209 212.746L42.287 91.5611C45.3145 87.3927 48.5201 83.2778 51.8236 79.3411L220.206 220.539L220.197 220.53ZM220.615 220.067L85.037 47.17C89.0796 43.9992 93.2825 40.9264 97.5388 38.0495L213.234 208.863C213.189 208.889 213.145 208.925 213.1 208.952L220.615 220.067ZM223.411 219.978L230.864 208.925C230.82 208.889 230.766 208.863 230.722 208.827L345.9 37.6665C350.174 40.5434 354.404 43.6073 358.455 46.7781L223.411 219.978ZM220.927 219.907L110.637 29.8197C115.098 27.2278 119.702 24.7696 124.314 22.5073L215.121 207.785C215.121 207.785 215.05 207.821 215.015 207.838L220.918 219.907H220.927ZM223.144 219.747L228.959 207.829C228.914 207.803 228.861 207.785 228.816 207.758L319.045 22.1955C323.684 24.4489 328.296 26.8983 332.766 29.4812L223.144 219.747ZM221.835 219.488L220.446 206.262C220.375 206.262 220.295 206.28 220.224 206.289L198.55 1.11334C203.644 0.578937 208.817 0.204855 213.946 0.0267202L221.835 219.488ZM222.628 219.123L260 3.14407C265.084 4.02584 270.204 5.09464 275.217 6.33268L225.842 206.689C225.842 206.689 225.753 206.663 225.709 206.654L222.619 219.123H222.628ZM222.165 219.079L229.279 0C234.408 0.169228 239.591 0.51659 244.675 1.03318L223.723 206.28C223.643 206.271 223.572 206.262 223.491 206.253L222.165 219.07V219.079ZM221.283 218.633L218.3 206.654C218.238 206.672 218.176 206.689 218.104 206.707L168.008 6.51972C173.021 5.26387 178.132 4.17725 183.217 3.27767L221.274 218.633H221.283Z" fill="#93F993" fill-opacity="0.4"/>
</svg>
